# xmcd
#
# Track frame offsets:
#	182
#	11187
#	26682
#	43995
#	58637
#	75180
#	94422
#	107200
#	121945
#	138957
#
# Disc length: 2082 seconds
#
# Revision: 7
# Processed by: cddbd v1.5.1PL2 Copyright (c) Steve Scherf et al.
# Submitted via: dBpowerAMP V4.0
#
DISCID=8108200a
DTITLE=Confederate Railroad - When and Where
DYEAR=1995
DGENRE=Country
TTITLE0=When and Where
TTITLE1=Right Track Wrong Train
TTITLE2=Toss a Little Bone
TTITLE3=When He Was My Age
TTITLE4=Bill's Laundromat, Bar and Grill
TTITLE5=All I Wanted
TTITLE6=See Ya
TTITLE7=Sounds of Home
TTITLE8=Oh No
TTITLE9=My Baby's Lovin'
EXTD=LABEL =Atlantic Recording Corporation\nID =82774-2\nUPC =07567-82774-29\nCOPYRIGHT =1995
EXTT0=
EXTT1=
EXTT2=
EXTT3=
EXTT4=
EXTT5=
EXTT6=
EXTT7=
EXTT8=
EXTT9=
PLAYORDER=
